<svg xmlns="http://www.w3.org/2000/svg" width="640" height="200" viewBox="0 0 640 200">
  <defs>
    <!-- Background: light teal → light lavender, diagonal -->
    <linearGradient id="bg" x1="0" y1="0" x2="640" y2="200" gradientUnits="userSpaceOnUse">
      <stop offset="0%"   stop-color="#e0f7ff"/>
      <stop offset="100%" stop-color="#ede9fe"/>
    </linearGradient>

    <!-- Logo gradient (coordinates in logo's local space: 0-100 x 0-100) -->
    <linearGradient id="logoGrad" x1="10" y1="10" x2="90" y2="90" gradientUnits="userSpaceOnUse">
      <stop offset="0%"   stop-color="#0891b2"/>
      <stop offset="100%" stop-color="#7c3aed"/>
    </linearGradient>

    <!-- Text gradient (root coordinate space) -->
    <linearGradient id="textGrad" x1="265" y1="0" x2="375" y2="0" gradientUnits="userSpaceOnUse">
      <stop offset="0%"   stop-color="#0891b2"/>
      <stop offset="100%" stop-color="#7c3aed"/>
    </linearGradient>
  </defs>

  <!-- Background fill -->
  <rect width="640" height="200" fill="url(#bg)"/>

  <!-- Soft ambient circles for depth -->
  <circle cx="60"  cy="170" r="110" fill="#0891b2" opacity="0.07"/>
  <circle cx="580" cy="30"  r="90"  fill="#7c3aed" opacity="0.09"/>

  <!--
    Logo: original viewBox 0 0 100 100
    Scale 1.1 → 110×110, centered at (320, 88)
    translate = (320 − 50×1.1, 88 − 49×1.1) = (265, 34.1)
  -->
  <g transform="translate(265, 34) scale(1.1)">
    <!-- Left leg of A -->
    <polygon points="50,10 10,88 24,88"  fill="url(#logoGrad)"/>
    <!-- Right leg of A -->
    <polygon points="50,10 76,88 90,88"  fill="url(#logoGrad)"/>
    <!-- Stem -->
    <rect x="48.5" y="57" width="3" height="13" rx="1.5" fill="url(#logoGrad)"/>
    <!-- Center leaf (pointing up) -->
    <ellipse cx="50" cy="49" rx="3.5" ry="7.5" fill="url(#logoGrad)"/>
    <!-- Left leaf -->
    <ellipse cx="44" cy="57" rx="6.5" ry="3" transform="rotate(-35 44 57)" fill="url(#logoGrad)"/>
    <!-- Right leaf -->
    <ellipse cx="56" cy="57" rx="6.5" ry="3" transform="rotate(35 56 57)"  fill="url(#logoGrad)"/>
  </g>

  <!-- Brand text -->
  <text
    x="320" y="168"
    font-family="'Space Grotesk', 'Segoe UI', Arial, sans-serif"
    font-size="15"
    font-weight="700"
    fill="url(#textGrad)"
    text-anchor="middle"
    letter-spacing="5"
  >AraGrow</text>
</svg>
